<?xml version="1.0" encoding="UTF-8" standalone="no"?>
<!-- Created with Inkscape (http://www.inkscape.org/) -->

<svg
   width="500.00003"
   height="1000.0001"
   viewBox="0 0 500.00003 1000.0001"
   version="1.1"
   id="svg1"
   inkscape:version="1.3 (0e150ed6c4, 2023-07-21)"
   sodipodi:docname="2.svg"
   xmlns:inkscape="http://www.inkscape.org/namespaces/inkscape"
   xmlns:sodipodi="http://sodipodi.sourceforge.net/DTD/sodipodi-0.dtd"
   xmlns="http://www.w3.org/2000/svg"
   xmlns:svg="http://www.w3.org/2000/svg">
  <sodipodi:namedview
     id="namedview1"
     pagecolor="#ffffff"
     bordercolor="#000000"
     borderopacity="0.25"
     inkscape:showpageshadow="2"
     inkscape:pageopacity="0.0"
     inkscape:pagecheckerboard="0"
     inkscape:deskcolor="#d1d1d1"
     inkscape:document-units="mm"
     inkscape:zoom="0.25606581"
     inkscape:cx="-177.6887"
     inkscape:cy="1070.0374"
     inkscape:window-width="1920"
     inkscape:window-height="995"
     inkscape:window-x="-9"
     inkscape:window-y="-9"
     inkscape:window-maximized="1"
     inkscape:current-layer="layer1" />
  <defs
     id="defs1" />
  <g
     inkscape:label="Layer 1"
     inkscape:groupmode="layer"
     id="layer1">
    <path
       id="path2783-6"
       style="fill-opacity:0.5;stroke-width:0.999999;stroke-linecap:round;stroke-linejoin:round;paint-order:fill markers stroke"
       d="M 464.80156,0.69506205 A 28.525911,28.062636 53.325404 0 0 445.09457,20.688052 L 205.16254,964.46851 a 28.525911,28.062636 53.325404 0 0 20.40503,34.79381 28.525911,28.062636 53.325404 0 0 34.31599,-19.95591 L 499.80959,35.531882 a 28.525911,28.062636 53.325404 0 0 -20.396,-34.79380995 28.525911,28.062636 53.325404 0 0 -14.61203,-0.0431 z M 161.45955,131.69229 a 28.525911,28.062636 53.325404 0 0 -23.31602,20.70629 L 0.19053529,695.04218 a 28.525911,28.062636 53.325404 0 0 20.39500971,34.79392 28.525911,28.062636 53.325404 0 0 34.318,-19.95009 L 192.85654,167.24438 a 28.525911,28.062636 53.325404 0 0 -20.39799,-34.79581 28.525911,28.062636 53.325404 0 0 -10.999,-0.75628 z" />
  </g>
</svg>
