<?xml version="1.0" encoding="UTF-8" standalone="no"?>
<!-- Created with Inkscape (http://www.inkscape.org/) -->

<svg
   width="500"
   height="1000"
   viewBox="0 0 500 1000"
   version="1.1"
   id="svg1"
   inkscape:version="1.3 (0e150ed6c4, 2023-07-21)"
   sodipodi:docname="4.svg"
   xmlns:inkscape="http://www.inkscape.org/namespaces/inkscape"
   xmlns:sodipodi="http://sodipodi.sourceforge.net/DTD/sodipodi-0.dtd"
   xmlns="http://www.w3.org/2000/svg"
   xmlns:svg="http://www.w3.org/2000/svg">
  <sodipodi:namedview
     id="namedview1"
     pagecolor="#ffffff"
     bordercolor="#000000"
     borderopacity="0.25"
     inkscape:showpageshadow="2"
     inkscape:pageopacity="0.0"
     inkscape:pagecheckerboard="0"
     inkscape:deskcolor="#d1d1d1"
     inkscape:document-units="mm"
     inkscape:zoom="0.25606581"
     inkscape:cx="-177.6887"
     inkscape:cy="1070.0374"
     inkscape:window-width="1920"
     inkscape:window-height="995"
     inkscape:window-x="-9"
     inkscape:window-y="-9"
     inkscape:window-maximized="1"
     inkscape:current-layer="layer1" />
  <defs
     id="defs1" />
  <g
     inkscape:label="Layer 1"
     inkscape:groupmode="layer"
     id="layer1">
    <path
       id="path2789-5"
       style="fill-opacity:0.5;stroke-width:0.999999;stroke-linecap:round;stroke-linejoin:round;paint-order:fill markers stroke"
       d="M 525.19068,46.254666 A 28.525911,28.062636 53.325404 0 0 503.32566,63.853849 C 447.04565,212.1267 372.1167,349.71229 295.6367,468.88141 L 161.92868,381.08279 a 28.525911,28.062636 53.325404 0 0 -21.26801,-4.12128 28.525911,28.062636 53.325404 0 0 -17.70902,12.16268 28.525911,28.062636 53.325404 0 0 8.61703,39.29431 l 133.157,87.439 C 105.96366,752.31812 -49.589354,905.2244 -49.589354,905.2244 a 28.525911,28.062636 53.325404 0 0 -0.190866,40.09751 28.525911,28.062636 53.325404 0 0 39.9180137,0.82658 c 0,0 159.4740063,-155.82264 322.3980463,-398.89736 l 106.73599,70.08799 a 28.525911,28.062636 53.325404 0 0 38.97801,-8.04329 28.525911,28.062636 53.325404 0 0 -8.61801,-39.29239 L 343.40684,500.2496 C 421.53682,378.3791 498.19782,237.38989 556.11584,84.792661 A 28.525911,28.062636 53.325404 0 0 539.73381,47.960669 28.525911,28.062636 53.325404 0 0 525.19083,46.254666 Z" />
  </g>
</svg>
