<?xml version="1.0" encoding="UTF-8" standalone="no"?>
<!-- Created with Inkscape (http://www.inkscape.org/) -->

<svg
   width="600"
   height="1000.0001"
   viewBox="0 0 158.74999 264.58333"
   version="1.1"
   id="svg1"
   inkscape:version="1.3 (0e150ed6c4, 2023-07-21)"
   sodipodi:docname="6.svg"
   xmlns:inkscape="http://www.inkscape.org/namespaces/inkscape"
   xmlns:sodipodi="http://sodipodi.sourceforge.net/DTD/sodipodi-0.dtd"
   xmlns="http://www.w3.org/2000/svg"
   xmlns:svg="http://www.w3.org/2000/svg">
  <sodipodi:namedview
     id="namedview1"
     pagecolor="#ffffff"
     bordercolor="#000000"
     borderopacity="0.25"
     inkscape:showpageshadow="2"
     inkscape:pageopacity="0.0"
     inkscape:pagecheckerboard="0"
     inkscape:deskcolor="#d1d1d1"
     inkscape:document-units="mm"
     inkscape:zoom="0.25606581"
     inkscape:cx="654.12872"
     inkscape:cy="23.431476"
     inkscape:window-width="1920"
     inkscape:window-height="995"
     inkscape:window-x="-9"
     inkscape:window-y="-9"
     inkscape:window-maximized="1"
     inkscape:current-layer="layer1" />
  <defs
     id="defs1" />
  <g
     inkscape:label="Layer 1"
     inkscape:groupmode="layer"
     id="layer1">
    <path
       id="path2783-0"
       style="fill-opacity:0.5;stroke-width:0.264583;stroke-linecap:round;stroke-linejoin:round;paint-order:fill markers stroke"
       d="m 106.92631,0.1177713 c -2.56838,0.68603587 -4.55588,2.7024798 -5.21386,5.28981 L 77.366527,101.17299 H 11.021198 c -4.1245452,-2.6e-4 -7.4158628,3.35934 -7.3512634,7.50379 0.064534,4.14463 3.4608273,7.50455 7.5855524,7.5043 h 62.29508 L 38.229863,255.11613 c -1.016492,4.0005 1.401055,8.12234 5.399431,9.20586 3.99782,1.08409 8.062659,-1.27987 9.078994,-5.28 L 89.025787,116.18108 h 58.703893 c 4.12484,4e-4 7.41638,-3.35956 7.3515,-7.5043 -0.0648,-4.14453 -3.46116,-7.50417 -7.58578,-7.50379 H 92.841477 L 116.18773,9.3350013 c 1.01674,-3.9994528 -1.39898,-8.1208121 -5.39599,-9.20586 -1.27048,-0.34458483 -2.60363,-0.34851653 -3.86546,-0.0114 z"
       sodipodi:nodetypes="ccccccccccccccccccc" />
  </g>
</svg>
