<?xml version="1.0" encoding="UTF-8" standalone="no"?>
<!-- Created with Inkscape (http://www.inkscape.org/) -->

<svg
   width="400"
   height="1000"
   viewBox="0 0 105.83333 264.58333"
   version="1.1"
   id="svg1"
   inkscape:version="1.3 (0e150ed6c4, 2023-07-21)"
   sodipodi:docname="f.svg"
   xmlns:inkscape="http://www.inkscape.org/namespaces/inkscape"
   xmlns:sodipodi="http://sodipodi.sourceforge.net/DTD/sodipodi-0.dtd"
   xmlns="http://www.w3.org/2000/svg"
   xmlns:svg="http://www.w3.org/2000/svg">
  <sodipodi:namedview
     id="namedview1"
     pagecolor="#ffffff"
     bordercolor="#000000"
     borderopacity="0.25"
     inkscape:showpageshadow="2"
     inkscape:pageopacity="0.0"
     inkscape:pagecheckerboard="0"
     inkscape:deskcolor="#d1d1d1"
     inkscape:document-units="mm"
     inkscape:zoom="0.25606581"
     inkscape:cx="91.773285"
     inkscape:cy="492.06102"
     inkscape:window-width="1920"
     inkscape:window-height="995"
     inkscape:window-x="-9"
     inkscape:window-y="-9"
     inkscape:window-maximized="1"
     inkscape:current-layer="layer1" />
  <defs
     id="defs1" />
  <g
     inkscape:label="Layer 1"
     inkscape:groupmode="layer"
     id="layer1">
    <path
       id="path30"
       style="color:#000000;fill:#000000;stroke-linecap:round;stroke-linejoin:round;-inkscape-stroke:none;paint-order:markers stroke fill"
       d="M 95.979671 0.01550293 A 7.5 7.5 0 0 0 92.171635 0.77514648 L 34.183443 29.427661 A 7.5 7.5 0 0 0 30.781067 39.472526 A 7.5 7.5 0 0 0 40.825932 42.874902 L 98.816191 14.224455 A 7.5 7.5 0 0 0 102.21857 4.1775228 A 7.5 7.5 0 0 0 97.900484 0.39635824 A 7.5 7.5 0 0 0 95.979671 0.01550293 z M 44.640686 75.576265 C 36.829425 75.576265 30.249342 79.502885 25.189677 84.318368 C 20.130012 89.13385 16.198413 95.038703 13.00179 100.79126 C 6.6085455 112.29637 3.166215 123.58212 3.166215 123.58212 A 7.5 7.5 0 0 0 8.1230184 132.95726 A 7.5 7.5 0 0 0 17.500224 127.99994 C 17.500224 127.99994 20.638474 117.92815 26.113135 108.07609 C 28.850466 103.15007 32.175775 98.376793 35.531165 95.183337 C 38.886554 91.989882 41.879709 90.576383 44.640686 90.576383 C 46.094364 90.576383 46.256627 90.766332 46.757869 91.265747 C 47.259113 91.765163 48.056614 93.042812 48.576363 95.380741 C 49.591845 99.948566 49.2227 107.95819 47.226575 116.85953 C 45.561961 120.98601 43.869733 125.09687 42.341602 129.3182 C 33.355296 154.14214 26.970447 178.7834 26.970447 178.7834 A 7.50075 7.50075 0 0 0 41.366984 182.97643 C 44.326086 173.82737 55.911347 145.56586 61.597791 121.31249 C 64.539479 114.13383 67.555863 107.32583 70.562618 102.02323 C 72.965244 97.786039 75.360218 94.429947 77.234562 92.511666 C 79.108906 90.593385 80.109736 90.576383 79.562585 90.576383 C 82.172778 90.576383 83.089382 91.106891 83.964901 91.925655 C 84.840419 92.744419 85.818837 94.363893 86.462939 97.228691 C 87.751143 102.95828 87.186389 112.87697 85.091964 123.83378 C 80.903113 145.74742 71.389285 171.93617 66.482247 186.43565 A 7.5 7.5 0 0 0 66.462093 186.58861 C 35.539056 211.95819 0.90433756 244.26778 0.90433757 244.26778 A 7.50075 7.50075 0 0 0 10.906311 255.44332 C 10.906311 255.44332 26.245271 242.52945 45.921745 245.91419 C 51.932975 246.94825 57.237606 252.85291 66.509635 258.41782 C 75.781665 263.98272 89.677278 266.50294 107.49783 257.58583 A 7.5 7.5 0 0 0 110.8475 247.52339 A 7.5 7.5 0 0 0 100.78506 244.17166 C 86.09907 251.52029 80.708829 249.44593 74.228544 245.55659 C 67.748259 241.66724 60.833995 233.25887 48.464742 231.13111 C 45.07141 230.54739 41.786385 230.31163 38.636918 230.34563 C 56.141233 214.74502 77.543009 196.21038 94.763725 183.38467 A 7.5 7.5 0 0 0 96.299032 172.88867 A 7.5 7.5 0 0 0 91.3691 169.94932 A 7.5 7.5 0 0 0 87.800326 170.40459 C 92.197037 157.15196 97.013781 141.36177 99.825948 126.65015 C 102.10302 114.73782 103.26431 103.57601 101.09771 93.939486 C 100.0144 89.12122 97.968593 84.484979 94.210787 80.970768 C 90.452982 77.456559 85.124523 75.576265 79.562585 75.576265 C 74.01312 75.576265 69.846454 78.608812 66.506018 82.027551 C 64.818786 83.754335 63.255421 85.704735 61.759538 87.838049 C 60.735795 85.220173 59.432479 82.717508 57.345854 80.638489 C 54.136934 77.441266 49.401241 75.576265 44.640686 75.576265 z " />
  </g>
</svg>
