<?xml version="1.0" encoding="UTF-8" standalone="no"?>
<!-- Created with Inkscape (http://www.inkscape.org/) -->

<svg
   width="600"
   height="999.99866"
   viewBox="0 0 600 999.99866"
   version="1.1"
   id="svg1"
   inkscape:version="1.3 (0e150ed6c4, 2023-07-21)"
   sodipodi:docname="Ⅽ.svg"
   xmlns:inkscape="http://www.inkscape.org/namespaces/inkscape"
   xmlns:sodipodi="http://sodipodi.sourceforge.net/DTD/sodipodi-0.dtd"
   xmlns="http://www.w3.org/2000/svg"
   xmlns:svg="http://www.w3.org/2000/svg">
  <sodipodi:namedview
     id="namedview1"
     pagecolor="#ffffff"
     bordercolor="#000000"
     borderopacity="0.25"
     inkscape:showpageshadow="2"
     inkscape:pageopacity="0.0"
     inkscape:pagecheckerboard="0"
     inkscape:deskcolor="#d1d1d1"
     inkscape:document-units="mm"
     inkscape:zoom="0.25606581"
     inkscape:cx="-173.78345"
     inkscape:cy="648.27085"
     inkscape:window-width="1920"
     inkscape:window-height="995"
     inkscape:window-x="-9"
     inkscape:window-y="-9"
     inkscape:window-maximized="1"
     inkscape:current-layer="layer1" />
  <defs
     id="defs1" />
  <g
     inkscape:label="Layer 1"
     inkscape:groupmode="layer"
     id="layer1">
    <path
       id="path1542"
       style="fill-opacity:0.5;stroke-width:0.999999;stroke-linecap:round;stroke-linejoin:round"
       d="M 381.35498,2.9029261 A 28.525724,28.062451 53.325268 0 0 355.83402,23.812447 l -26.221,103.136813 H 157.68297 A 28.525724,28.062451 53.325268 0 0 129.9,155.31005 28.525724,28.062451 53.325268 0 0 158.56798,183.67076 H 315.194 L 276.83799,334.54978 H 54.374976 a 28.525724,28.062451 53.325268 0 0 -27.781987,28.36071 28.525724,28.062451 53.325268 0 0 28.667984,28.36078 H 543.375 A 28.525724,28.062451 53.325268 0 0 571.15702,362.91049 28.525724,28.062451 53.325268 0 0 542.489,334.54978 H 335.32899 L 373.687,183.67076 h 171.937 a 28.525724,28.062451 53.325268 0 0 27.78301,-28.36071 28.525724,28.062451 53.325268 0 0 -28.66798,-28.36079 H 388.107 L 410.55599,38.650458 A 28.525724,28.062451 53.325268 0 0 390.15199,3.8566522 28.525724,28.062451 53.325268 0 0 381.35498,2.9029261 Z M 63.13596,476.23828 a 28.525724,28.062451 53.325268 0 0 -27.78297,28.3607 28.525724,28.062451 53.325268 0 0 28.667984,28.36283 H 396.96999 L 170.74498,783.81173 126.442,689.30452 a 28.525724,28.062451 53.325268 0 0 -16.02902,-14.80865 28.525724,28.062451 53.325268 0 0 -21.574983,0.7465 28.525724,28.062451 53.325268 0 0 -13.402017,37.57074 l 125.49103,267.70657 a 28.525724,28.062451 53.325268 0 0 37.60199,14.06211 28.525724,28.062451 53.325268 0 0 13.40999,-37.5648 l -54.93298,-117.18336 284.989,-316.01544 a 28.528575,28.065256 53.325289 0 0 -21.491,-47.57991 z" />
  </g>
</svg>
